<svg xmlns="http://www.w3.org/2000/svg" xmlns:xlink="http://www.w3.org/1999/xlink" width="776" height="191"><defs><radialGradient id="b" cx="51.4%" cy="40.101%" r="33.611%" fx="51.4%" fy="40.101%" gradientTransform="matrix(.22397 -.94053 1.46476 .8025 -.188 .563)"><stop offset="0%" stop-color="#0D0101"/><stop offset="26.723%" stop-color="#4A0707"/><stop offset="52.85%" stop-color="#8C0E0E"/><stop offset="74.013%" stop-color="#C23C3C"/><stop offset="100%" stop-color="#8C0E0E"/></radialGradient><path id="a" d="M2.552 43.743C14.617-15.94 90.212-4.384 165.914 21.108c75.702 25.493 136.993 60.54 120.636 119.278-16.357 58.739-93.825 58.746-167.365 35.77C45.645 153.183-9.514 103.427 2.552 43.744z"/><path id="c" d="M247.021 122.029c11.261-24.168-28.183-32.543-23.59-44.098 4.04-10.166 10.329-28.75 23.59-19.929 31.674 21.07 49.219 47.59 39.53 82.384-10.621 38.138-47.004 51.517-91.346 49.921-3.685-.132-11.994-3.874-6.354-26.738 8.335-33.794 41.837-6.485 58.17-41.54z"/></defs><g fill="none" fill-rule="evenodd"><g transform="translate(-.127 .063)"><path stroke="#8C0E0E" stroke-linecap="square" stroke-width="2" d="M287.3 166.5h-97.194m84.64-85.5h-7m18.446-5.395c-1.629 3.699-5.444 5.496-11.446 5.393m23.264.04c-3.852 5.487-8.664 7.81-13.934 9.022m-27.304 15.877c0-8.268 29.431-18.053 39.355-18"/><path stroke="#8C0E0E" stroke-width="2" d="M257.627 166.431c5.471 0 12.84-11.205 34.23-10.776m-35.085-31.394c0 8.147 28.227 18.996 39.775 18.676"/><use fill="#8C0E0E" xlink:href="#a"/><use fill="url(#b)" xlink:href="#a"/><mask id="d" fill="#fff"><use xlink:href="#c"/></mask><use fill="#170A0A" fill-opacity=".37" xlink:href="#c"/><path stroke="#FFF" stroke-opacity=".35" d="M10.683 45.998C22.069-10.327 93.41.578 164.853 24.637 236.293 48.695 294.136 81.77 278.7 137.203c-15.437 55.433-88.545 55.44-157.947 33.757C51.352 149.278-.704 102.323 10.683 45.998z" mask="url(#d)"/><path stroke="#FFF" stroke-opacity=".35" d="M22.25 53.298C32.657 5.408 97.86 14.68 163.159 35.136c65.297 20.455 118.164 48.576 104.055 95.707-14.109 47.13-80.93 47.136-144.361 28.701C59.42 141.11 11.843 101.187 22.25 53.298z" mask="url(#d)"/><path stroke="#FFF" stroke-opacity=".35" d="M36.844 61.642c9.171-38.247 66.634-30.842 124.178-14.506 57.545 16.337 104.135 38.796 91.701 76.437-12.434 37.642-71.32 37.646-127.221 22.923-55.9-14.723-97.83-46.607-88.658-84.854z" mask="url(#d)"/><path stroke="#FFF" stroke-linecap="square" stroke-opacity=".346" d="M212.554 192.485c1.55-6.239 1.777-14.023.68-23.352-1.098-9.329-3.324-18.545-6.68-27.648" mask="url(#d)"/><path stroke="#FFF" stroke-linecap="square" stroke-opacity=".346" d="M244.197 188.14c2.128-8.52 1.593-17.82-1.605-27.9-3.197-10.079-8.028-17.69-14.491-22.833" mask="url(#d)" transform="rotate(-8 236.787 162.774)"/><path stroke="#FFF" stroke-linecap="square" stroke-opacity=".346" d="M267.382 167.15c.895-12.732.782-21.962-.34-27.69-1.122-5.73-4.248-13.042-9.38-21.938" mask="url(#d)" transform="rotate(-45 262.82 142.336)"/><path stroke="#FFF" stroke-linecap="square" stroke-opacity=".346" d="M281.142 133.153c2.016-7.621-.456-15.19-7.416-22.71-6.96-7.518-12.843-11.687-17.649-12.507" mask="url(#d)" transform="rotate(-45 268.95 115.545)"/><path stroke="#FFF" stroke-linecap="square" stroke-opacity=".346" d="M279.487 102.776c-6.06-6.645-11.694-11.07-16.9-13.276-5.207-2.206-13.48-3.673-24.819-4.401" mask="url(#d)" transform="rotate(-45 258.627 93.937)"/><path stroke="#FFF" stroke-linecap="square" stroke-opacity=".346" d="M263.981 85.727c-7.304-5.924-13.425-9.662-18.363-11.214-4.937-1.553-12.382-2.08-22.335-1.583" mask="url(#d)" transform="rotate(-45 243.632 79.238)"/><circle cx="134" cy="81" r="5" fill="#FFF" fill-rule="nonzero" mask="url(#d)"/><circle cx="164.627" cy="42.437" r="5" fill="#FFF" fill-rule="nonzero" mask="url(#d)"/><circle cx="189" cy="81" r="5" fill="#FFF" fill-rule="nonzero" mask="url(#d)"/><circle cx="256.772" cy="81" r="5" fill="#FFF" fill-rule="nonzero" mask="url(#d)"/><circle cx="256.772" cy="113.402" r="5" fill="#FFF" fill-rule="nonzero" mask="url(#d)"/><circle cx="256.772" cy="157.157" r="5" fill="#FFF" fill-rule="nonzero" mask="url(#d)"/><circle cx="216.02" cy="166.332" r="5" fill="#FFF" fill-rule="nonzero" mask="url(#d)"/><circle cx="134" cy="28" r="5" fill="#FFF" fill-rule="nonzero" mask="url(#d)"/><circle cx="93" cy="28" r="5" fill="#FFF" fill-rule="nonzero" mask="url(#d)"/><circle cx="134" cy="133" r="5" fill="#FFF" fill-rule="nonzero" mask="url(#d)"/><circle cx="134" cy="188" r="5" fill="#FFF" fill-rule="nonzero" mask="url(#d)"/><path stroke="#FFF" stroke-linecap="square" d="M134 35v39" mask="url(#d)"/><path stroke="#FFF" stroke-linecap="square" stroke-width="2" d="M256.772 120.4v29.756m0-62.156v18.4" mask="url(#d)"/><path stroke="#FFF" stroke-linecap="square" d="M182 81h-41m-14 52h-22" mask="url(#d)"/><path stroke="#FFF" stroke-linecap="square" stroke-width="2" d="M279.015 166.5H223.02" mask="url(#d)"/><path stroke="#FFF" stroke-width="2" d="M257.627 166.431c5.471 0 12.84-11.205 34.23-10.776" mask="url(#d)"/><path stroke="#FFF" stroke-linecap="square" stroke-width="2" d="M209.02 166.5h-54.994" mask="url(#d)"/><path stroke="#FFF" stroke-linecap="square" d="M127 28h-27m88.995 14.674h-17.368M91 133H59.127M86 88H39" mask="url(#d)"/><path stroke="#FFF" stroke-linecap="square" stroke-width="2" d="M249.772 81H196m77.84 0h-10.068" mask="url(#d)"/><path stroke="#FFF" stroke-linecap="square" d="M159.627 47.437L139 74.957M98 93l31 34.804m11 9.925l40.106 28.771m-33.07 42l33.07-42" mask="url(#d)"/><path stroke="#FFF" stroke-linecap="square" stroke-width="2" d="M228.737 166.33c8.079-4.718 14.41-10.04 18.991-15.966 4.582-5.926 7.543-12.38 8.883-19.363" mask="url(#d)"/><path stroke="#FFF" stroke-linecap="square" d="M127 140l-17.373 16.465m76.211-135.74l-16.211 16.212" mask="url(#d)"/><path stroke="#FFF" stroke-linecap="round" d="M205.857 26.463l-16.211 16.211" mask="url(#d)"/><path stroke="#FFF" stroke-linecap="square" d="M134-4v25m0 67v39m0 13v41M93 35v46" mask="url(#d)"/><circle cx="98" cy="133" r="5" fill="#FFF" fill-rule="nonzero" mask="url(#d)"/><circle cx="52.127" cy="133" r="5" fill="#FFF" fill-rule="nonzero" mask="url(#d)"/><circle cx="104.337" cy="161.907" r="5" fill="#FFF" fill-rule="nonzero" mask="url(#d)"/><circle cx="93" cy="88" r="5" fill="#FFF" fill-rule="nonzero" mask="url(#d)"/><circle cx="32" cy="88" r="5" fill="#FFF" fill-rule="nonzero" mask="url(#d)"/><path stroke="#FFF" stroke-width="2" d="M236.97 81.046C210.336 94.054 198.057 132.04 200.132 195" mask="url(#d)"/><path stroke="#FFF" d="M139.95 151.03c-3.977 2.456-5.966 4.595-5.966 6.417" mask="url(#d)"/><path stroke="#FFF" d="M176.054 80.768c-4.278 2.642-6.417 4.943-6.417 6.903" mask="url(#d)" transform="rotate(90 172.845 84.22)"/><path stroke="#FFF" d="M86.901 132.755c-4.278 2.642-6.417 4.942-6.417 6.902" mask="url(#d)" transform="rotate(90 83.693 136.206)"/><path stroke="#FFF" d="M78.999 132.755c-4.278 2.642-6.417 4.942-6.417 6.902" mask="url(#d)" transform="rotate(90 75.79 136.206)"/><path stroke="#FFF" d="M93 69.097C88.722 71.74 86.583 74.04 86.583 76" mask="url(#d)" transform="rotate(-180 89.791 72.549)"/><path stroke="#FFF" d="M176.054 74.35c-4.278 2.643-6.417 4.943-6.417 6.903" mask="url(#d)" transform="scale(-1 1) rotate(-90 0 250.647)"/><path stroke="#FFF" d="M207.327 74.35c-4.279 2.643-6.418 4.943-6.418 6.903" mask="url(#d)" transform="rotate(-90 204.118 77.802)"/><path stroke="#FFF" d="M99.417 69.097C95.14 71.74 93 74.04 93 76" mask="url(#d)" transform="matrix(1 0 0 -1 0 145.097)"/><path stroke="#FFF" d="M119.563 106.796c-4.45.594-7.142 1.722-8.077 3.384" mask="url(#d)" transform="scale(1 -1) rotate(15 939.574 0)"/><path stroke="#FFF" d="M124.414 112.155c-4.45.594-7.142 1.722-8.077 3.385" mask="url(#d)" transform="scale(1 -1) rotate(15 985.134 0)"/><path stroke="#FFF" d="M185.71 42.432c-4.278 2.642-6.417 4.942-6.417 6.902" mask="url(#d)" transform="rotate(90 136.619 0)"/><path stroke="#FFF" d="M134 57.697c-4.278 2.642-6.417 4.943-6.417 6.903" mask="url(#d)" transform="rotate(180 130.791 61.148)"/><path stroke="#FFF" d="M134 64.796c-4.278 2.641-6.417 4.942-6.417 6.902" mask="url(#d)" transform="rotate(180 130.791 68.247)"/><path stroke="#FFF" d="M140.417 39C136.14 41.642 134 43.943 134 45.903M99.417 39C95.14 41.642 93 43.943 93 45.903" mask="url(#d)"/><path stroke="#FFF" d="M170.35 36.215c1.215-9.002 1.215-14.068 0-15.2" mask="url(#d)" transform="rotate(90 170.806 28.615)"/><path stroke="#FFF" d="M153.697 80.768c-4.279 2.642-6.418 4.943-6.418 6.903" mask="url(#d)" transform="rotate(90 66.269 0)"/><path stroke="#FFF" d="M65.544 132.755c-4.278 2.642-6.417 4.942-6.417 6.902" mask="url(#d)" transform="matrix(0 1 1 0 -73.87 73.87)"/><path stroke="#FFF" d="M57.294 87.75c-4.279 2.64-6.418 4.942-6.418 6.902" mask="url(#d)" transform="matrix(0 1 1 0 -37.116 37.116)"/><path stroke="#FFF" d="M118.651 142.819c.09 3.317-.69 5.777-2.343 7.38" mask="url(#d)"/><path stroke="#FFF" d="M139.95 168.723c-3.977 2.456-5.966 4.595-5.966 6.417" mask="url(#d)" transform="matrix(1 0 0 -1 0 343.862)"/><path stroke="#FFF" d="M134.03 168.723c-3.977 2.456-5.966 4.595-5.966 6.417" mask="url(#d)" transform="rotate(180 131.047 171.931)"/><path stroke="#FFF" stroke-width="2" d="M256.772 124.261c0 8.147 28.227 18.996 39.775 18.676" mask="url(#d)"/><path stroke="#FFF" stroke-linecap="square" stroke-width="2" d="M256.772 105.937c0-8.268 29.431-18.053 39.355-18" mask="url(#d)"/><path fill="#8C0E0E" fill-rule="nonzero" stroke="#8C0E0E" transform="rotate(90 294.127 155.643)" d="M294.127 153.643L296.238 157.643 292.016 157.643z"/><path fill="#8C0E0E" fill-rule="nonzero" stroke="#8C0E0E" transform="rotate(90 290.127 166.431)" d="M290.127 164.431L292.238 168.431 288.016 168.431z"/><path fill="#8C0E0E" fill-rule="nonzero" stroke="#8C0E0E" transform="rotate(24 287.3 72.56)" d="M287.3 70.56L289.389 74.56 285.211 74.56z"/><path fill="#8C0E0E" fill-rule="nonzero" stroke="#8C0E0E" transform="rotate(31 299.766 78.248)" d="M299.766 76.248L301.855 80.248 297.677 80.248z"/><path stroke="#8C0E0E" stroke-width="2" d="M296.127 142.94c30-.178 10-55.4 40-55"/><path stroke="#8C0E0E" stroke-width="2" d="M336.127 142.94c-30-.178-10-55.4-40-55"/></g><g font-size="86.4" transform="translate(329.5 64)"><text fill="#8C0E0E" font-family="WorkSans-Bold, Work Sans" font-weight="bold"><tspan x="0" y="80">Erythro</tspan></text><text fill="#E0484D" font-family="WorkSans-Regular, Work Sans"><tspan x="333.6" y="81.8">DB</tspan></text></g></g></svg>