<?xml version="1.0" encoding="utf-8"?>
<!-- Generator: Adobe Illustrator 23.0.1, SVG Export Plug-In . SVG Version: 6.00 Build 0)  -->
<svg version="1.1" id="Layer_1" xmlns="http://www.w3.org/2000/svg" xmlns:xlink="http://www.w3.org/1999/xlink" x="0px" y="0px"
	 viewBox="0 0 43.17 44.19" style="enable-background:new 0 0 43.17 44.19;" xml:space="preserve">
<style type="text/css">
	.st0{fill:#697880;}
	.st1{fill:none;}
</style>
<g>
	<path class="st0" d="M11.42,25.6c-0.11,0-0.21-0.04-0.29-0.11l-3.52-3.03c-0.12-0.1-0.18-0.27-0.15-0.42l0.87-4.56
		c0.03-0.16,0.14-0.29,0.29-0.34l4.38-1.53c0.15-0.05,0.32-0.02,0.44,0.08l3.52,3.03c0.12,0.1,0.18,0.27,0.15,0.42l-0.87,4.56
		c-0.03,0.16-0.14,0.29-0.29,0.34l-4.38,1.53C11.52,25.59,11.47,25.6,11.42,25.6z M8.39,21.95l3.12,2.7l3.9-1.36l0.77-4.05
		l-3.13-2.7l-3.9,1.36L8.39,21.95z"/>
	<path class="st0" d="M19.37,27.15c-0.11,0-0.21-0.04-0.29-0.11l-3.52-3.03c-0.12-0.1-0.18-0.27-0.15-0.42l0.87-4.56
		c0.03-0.16,0.14-0.29,0.29-0.34l4.38-1.53c0.15-0.05,0.32-0.02,0.44,0.08l3.52,3.03c0.12,0.1,0.18,0.27,0.15,0.42l-0.87,4.56
		c-0.03,0.16-0.14,0.29-0.29,0.34l-4.38,1.53C19.47,27.14,19.42,27.15,19.37,27.15z M16.34,23.5l3.12,2.7l3.9-1.36l0.77-4.05
		l-3.12-2.7l-3.9,1.36L16.34,23.5z"/>
	<path class="st0" d="M24.62,21.06c-0.11,0-0.21-0.04-0.29-0.11l-3.52-3.03c-0.12-0.1-0.18-0.27-0.15-0.42l0.87-4.56
		c0.03-0.16,0.14-0.29,0.29-0.34l4.38-1.53c0.15-0.05,0.32-0.02,0.44,0.08l3.52,3.03c0.12,0.1,0.18,0.27,0.15,0.42l-0.87,4.56
		c-0.03,0.16-0.14,0.29-0.29,0.34l-4.38,1.53C24.72,21.05,24.67,21.06,24.62,21.06z M21.6,17.41l3.12,2.7l3.9-1.36l0.77-4.05
		L26.26,12l-3.9,1.36L21.6,17.41z"/>
	<path class="st0" d="M18.5,31.71c-0.03,0-0.06,0-0.08-0.01c-0.24-0.05-0.4-0.28-0.36-0.52l0.87-4.56c0.05-0.24,0.28-0.4,0.52-0.36
		c0.24,0.05,0.4,0.28,0.36,0.52l-0.87,4.56C18.9,31.56,18.71,31.71,18.5,31.71z"/>
	<path class="st0" d="M27.26,28.65c-0.18,0-0.36-0.12-0.42-0.3c-0.08-0.23,0.04-0.49,0.27-0.57l4.38-1.53
		c0.23-0.08,0.49,0.04,0.57,0.27c0.08,0.23-0.04,0.49-0.27,0.57l-4.38,1.53C27.36,28.64,27.31,28.65,27.26,28.65z"/>
	<path class="st0" d="M25.09,19.49c-0.15,0-0.29-0.09-0.35-0.25c-0.07-0.19,0.04-0.4,0.23-0.47l2.61-0.91
		c0.19-0.07,0.4,0.03,0.47,0.23c0.07,0.19-0.04,0.4-0.23,0.47l-2.61,0.91C25.17,19.48,25.13,19.49,25.09,19.49z"/>
	<path class="st0" d="M26.4,33.21c-0.03,0-0.06,0-0.08-0.01c-0.24-0.05-0.4-0.28-0.36-0.52l0.87-4.56c0.05-0.24,0.27-0.4,0.52-0.36
		c0.24,0.05,0.4,0.28,0.36,0.52l-0.87,4.56C26.79,33.06,26.61,33.21,26.4,33.21z"/>
	<path class="st0" d="M27.26,28.65c-0.1,0-0.21-0.04-0.29-0.11l-3.52-3.03c-0.19-0.16-0.21-0.44-0.05-0.63
		c0.16-0.19,0.44-0.21,0.63-0.05l3.52,3.03c0.19,0.16,0.21,0.44,0.05,0.63C27.51,28.6,27.39,28.65,27.26,28.65z"/>
</g>
<polygon class="st1" points="3.62,53.66 -4.29,39.97 3.62,26.28 19.42,26.28 27.33,39.97 19.42,53.66 "/>
</svg>
